<svg width="30" height="30" viewBox="0 0 30 30" fill="none" xmlns="http://www.w3.org/2000/svg">
<circle cx="15" cy="15" r="15" fill="black"/>
<path fill-rule="evenodd" clip-rule="evenodd" d="M6.25 16.8421C6.25 20.6571 9.34289 23.75 13.1579 23.75C16.9729 23.75 20.0658 20.6571 20.0658 16.8421C20.0658 13.0271 16.9729 9.93422 13.1579 9.93422C9.34289 9.93422 6.25 13.0271 6.25 16.8421ZM18.2237 16.8421C18.2237 19.6402 15.9561 21.9079 13.1579 21.9079C10.3598 21.9079 8.09216 19.6402 8.09216 16.8421C8.09216 14.0439 10.3598 11.7763 13.1579 11.7763C15.9561 11.7763 18.2237 14.0439 18.2237 16.8421Z" fill="#FBCC5C"/>
<path fill-rule="evenodd" clip-rule="evenodd" d="M9.93408 13.1579C9.93408 16.9729 13.027 20.0658 16.842 20.0658C20.657 20.0658 23.7499 16.9729 23.7499 13.1579C23.7499 9.34289 20.657 6.25 16.842 6.25C13.027 6.25 9.93408 9.34289 9.93408 13.1579ZM21.9078 13.1579C21.9078 15.956 19.6402 18.2236 16.842 18.2236C14.0439 18.2236 11.7762 15.956 11.7762 13.1579C11.7762 10.3597 14.0439 8.09206 16.842 8.09206C19.6402 8.09206 21.9078 10.3597 21.9078 13.1579Z" fill="#35D07F"/>
<path fill-rule="evenodd" clip-rule="evenodd" d="M9.93408 12.9295C10.5162 12.4505 11.1959 12.1079 11.9254 11.9255C12.1078 11.1942 12.4504 10.5145 12.9293 9.93422C12.0857 9.96185 11.2512 10.1442 10.472 10.4721C10.1422 11.2513 9.95987 12.084 9.93408 12.9295ZM18.0744 18.0745C17.892 18.8058 17.5494 19.4855 17.0705 20.0658C17.916 20.04 18.7486 19.8576 19.5278 19.5297C19.8576 18.7487 20.0399 17.916 20.0657 17.0705C19.4836 17.5495 18.8039 17.8921 18.0744 18.0745Z" fill="#5EA33B"/>
</svg>
