<svg width="31" height="31" viewBox="0 0 31 31" fill="none" xmlns="http://www.w3.org/2000/svg">
<circle cx="15.125" cy="15.6207" r="15" fill="black"/>
<path d="M19.6606 8.88754L16.5266 13.5384C16.3099 13.8551 16.7267 14.2385 17.0267 13.9718L20.1106 11.288C20.194 11.2213 20.3107 11.2713 20.3107 11.388V19.7729C20.3107 19.8896 20.1607 19.9396 20.094 19.8562L10.7589 8.6875C10.4589 8.32076 10.0254 8.12073 9.54202 8.12073H9.20863C8.3418 8.12073 7.625 8.83753 7.625 9.72102V21.5232C7.625 22.4067 8.3418 23.1235 9.2253 23.1235C9.7754 23.1235 10.2922 22.8401 10.5922 22.3567L13.7261 17.7058C13.9428 17.3891 13.5261 17.0057 13.226 17.2724L10.1421 19.9396C10.0588 20.0063 9.9421 19.9562 9.9421 19.8396V11.4713C9.9421 11.3547 10.0921 11.3046 10.1588 11.388L19.4939 22.5567C19.7939 22.9235 20.244 23.1235 20.7108 23.1235H21.0442C21.9276 23.1235 22.6444 22.4067 22.6444 21.5232V9.72102C22.6444 8.83753 21.9276 8.12073 21.0442 8.12073C20.4774 8.12073 19.9606 8.40411 19.6606 8.88754Z" fill="white"/>
</svg>
